<svg width="160" height="50" viewBox="0 0 160 50" fill="none" xmlns="http://www.w3.org/2000/svg">
<rect x="0.5" y="0.5" width="159" height="49" rx="7.5" fill="#09090B"/>
<rect x="0.5" y="0.5" width="159" height="49" rx="7.5" stroke="#A1A1AA"/>
<path d="M36.9829 39.7161C35.2409 41.4048 33.3389 41.1382 31.5081 40.3383C29.5705 39.5206 27.793 39.485 25.7488 40.3383C23.1891 41.4403 21.8382 41.1204 20.3095 39.7161C11.635 30.775 12.9148 17.159 22.7625 16.6613C25.1622 16.7857 26.8331 17.9766 28.2374 18.0833C30.3349 17.6567 32.3435 16.4302 34.5832 16.5902C37.2673 16.8035 39.2937 17.87 40.6269 19.7897C35.0809 23.1138 36.3963 30.4195 41.4801 32.4637C40.4669 35.13 39.1515 37.7786 36.9651 39.7339L36.9829 39.7161ZM28.0596 16.5546C27.793 12.5907 31.0103 9.31996 34.7077 9C35.2231 13.5861 30.5482 16.999 28.0596 16.5546Z" fill="#F4F4F5"/>
<path d="M52.9588 18V9.27273H56.1548C56.7741 9.27273 57.2869 9.375 57.6932 9.57955C58.0994 9.78125 58.4034 10.0554 58.6051 10.402C58.8068 10.7457 58.9077 11.1335 58.9077 11.5653C58.9077 11.929 58.8409 12.2358 58.7074 12.4858C58.5739 12.733 58.3949 12.9318 58.1705 13.0824C57.9489 13.2301 57.7045 13.3381 57.4375 13.4062V13.4915C57.7273 13.5057 58.0099 13.5994 58.2855 13.7727C58.5639 13.9432 58.794 14.1861 58.9759 14.5014C59.1577 14.8168 59.2486 15.2003 59.2486 15.652C59.2486 16.098 59.1435 16.4986 58.9332 16.8537C58.7259 17.206 58.4048 17.4858 57.9702 17.6932C57.5355 17.8977 56.9801 18 56.304 18H52.9588ZM54.2756 16.8707H56.1761C56.8068 16.8707 57.2585 16.7486 57.5312 16.5043C57.804 16.2599 57.9403 15.9545 57.9403 15.5881C57.9403 15.3125 57.8707 15.0597 57.7315 14.8295C57.5923 14.5994 57.3935 14.4162 57.1349 14.2798C56.8793 14.1435 56.5753 14.0753 56.223 14.0753H54.2756V16.8707ZM54.2756 13.0483H56.0398C56.3352 13.0483 56.6009 12.9915 56.8366 12.8778C57.0753 12.7642 57.2642 12.6051 57.4034 12.4006C57.5455 12.1932 57.6165 11.9489 57.6165 11.6676C57.6165 11.3068 57.4901 11.0043 57.2372 10.7599C56.9844 10.5156 56.5966 10.3935 56.0739 10.3935H54.2756V13.0483ZM62.6129 18.1449C62.1982 18.1449 61.8232 18.0682 61.4879 17.9148C61.1527 17.7585 60.8871 17.5327 60.6911 17.2372C60.4979 16.9418 60.4013 16.5795 60.4013 16.1506C60.4013 15.7812 60.4723 15.4773 60.6143 15.2386C60.7564 15 60.9482 14.8111 61.1896 14.6719C61.4311 14.5327 61.701 14.4276 61.9993 14.3565C62.2976 14.2855 62.6016 14.2315 62.9112 14.1946C63.3033 14.1491 63.6214 14.1122 63.8658 14.0838C64.1101 14.0526 64.2876 14.0028 64.3984 13.9347C64.5092 13.8665 64.5646 13.7557 64.5646 13.6023V13.5724C64.5646 13.2003 64.4595 12.9119 64.2493 12.7074C64.0419 12.5028 63.7322 12.4006 63.3203 12.4006C62.8913 12.4006 62.5533 12.4957 62.3061 12.6861C62.0618 12.8736 61.8928 13.0824 61.799 13.3125L60.6016 13.0398C60.7436 12.642 60.951 12.321 61.2237 12.0767C61.4993 11.8295 61.8161 11.6506 62.174 11.5398C62.532 11.4261 62.9084 11.3693 63.3033 11.3693C63.5646 11.3693 63.8416 11.4006 64.1342 11.4631C64.4297 11.5227 64.7053 11.6335 64.9609 11.7955C65.2195 11.9574 65.4311 12.1889 65.5959 12.4901C65.7607 12.7884 65.843 13.1761 65.843 13.6534V18H64.5987V17.1051H64.5476C64.4652 17.2699 64.3416 17.4318 64.1768 17.5909C64.0121 17.75 63.8004 17.8821 63.5419 17.9872C63.2834 18.0923 62.9737 18.1449 62.6129 18.1449ZM62.8899 17.1222C63.2422 17.1222 63.5433 17.0526 63.7933 16.9134C64.0462 16.7741 64.2379 16.5923 64.3686 16.3679C64.5021 16.1406 64.5689 15.8977 64.5689 15.6392V14.7955C64.5234 14.8409 64.4354 14.8835 64.3047 14.9233C64.1768 14.9602 64.0305 14.9929 63.8658 15.0213C63.701 15.0469 63.5405 15.071 63.3842 15.0938C63.228 15.1136 63.0973 15.1307 62.9922 15.1449C62.745 15.1761 62.5192 15.2287 62.3146 15.3026C62.1129 15.3764 61.951 15.483 61.8288 15.6222C61.7095 15.7585 61.6499 15.9403 61.6499 16.1676C61.6499 16.483 61.7663 16.7216 61.9993 16.8835C62.2322 17.0426 62.5291 17.1222 62.8899 17.1222ZM67.5401 18V11.4545H68.8143V18H67.5401ZM68.1836 10.4446C67.962 10.4446 67.7717 10.3707 67.6126 10.223C67.4563 10.0724 67.3782 9.89347 67.3782 9.68608C67.3782 9.47585 67.4563 9.29687 67.6126 9.14915C67.7717 8.99858 67.962 8.9233 68.1836 8.9233C68.4052 8.9233 68.5941 8.99858 68.7504 9.14915C68.9094 9.29687 68.989 9.47585 68.989 9.68608C68.989 9.89347 68.9094 10.0724 68.7504 10.223C68.5941 10.3707 68.4052 10.4446 68.1836 10.4446ZM71.5341 11.4545L72.9787 14.0028L74.4361 11.4545H75.8295L73.7884 14.7273L75.8466 18H74.4531L72.9787 15.554L71.5085 18H70.1108L72.1477 14.7273L70.1364 11.4545H71.5341ZM79.0309 18.1449C78.6161 18.1449 78.2411 18.0682 77.9059 17.9148C77.5707 17.7585 77.305 17.5327 77.109 17.2372C76.9158 16.9418 76.8192 16.5795 76.8192 16.1506C76.8192 15.7812 76.8903 15.4773 77.0323 15.2386C77.1744 15 77.3661 14.8111 77.6076 14.6719C77.8491 14.5327 78.119 14.4276 78.4173 14.3565C78.7156 14.2855 79.0195 14.2315 79.3292 14.1946C79.7212 14.1491 80.0394 14.1122 80.2837 14.0838C80.5281 14.0526 80.7056 14.0028 80.8164 13.9347C80.9272 13.8665 80.9826 13.7557 80.9826 13.6023V13.5724C80.9826 13.2003 80.8775 12.9119 80.6673 12.7074C80.4599 12.5028 80.1502 12.4006 79.7383 12.4006C79.3093 12.4006 78.9712 12.4957 78.7241 12.6861C78.4798 12.8736 78.3107 13.0824 78.217 13.3125L77.0195 13.0398C77.1616 12.642 77.369 12.321 77.6417 12.0767C77.9173 11.8295 78.234 11.6506 78.592 11.5398C78.9499 11.4261 79.3263 11.3693 79.7212 11.3693C79.9826 11.3693 80.2596 11.4006 80.5522 11.4631C80.8477 11.5227 81.1232 11.6335 81.3789 11.7955C81.6374 11.9574 81.8491 12.1889 82.0138 12.4901C82.1786 12.7884 82.261 13.1761 82.261 13.6534V18H81.0167V17.1051H80.9656C80.8832 17.2699 80.7596 17.4318 80.5948 17.5909C80.43 17.75 80.2184 17.8821 79.9599 17.9872C79.7013 18.0923 79.3917 18.1449 79.0309 18.1449ZM79.3079 17.1222C79.6602 17.1222 79.9613 17.0526 80.2113 16.9134C80.4641 16.7741 80.6559 16.5923 80.7866 16.3679C80.9201 16.1406 80.9869 15.8977 80.9869 15.6392V14.7955C80.9414 14.8409 80.8533 14.8835 80.7227 14.9233C80.5948 14.9602 80.4485 14.9929 80.2837 15.0213C80.119 15.0469 79.9585 15.071 79.8022 15.0938C79.646 15.1136 79.5153 15.1307 79.4102 15.1449C79.163 15.1761 78.9371 15.2287 78.7326 15.3026C78.5309 15.3764 78.369 15.483 78.2468 15.6222C78.1275 15.7585 78.0678 15.9403 78.0678 16.1676C78.0678 16.483 78.1843 16.7216 78.4173 16.8835C78.6502 17.0426 78.9471 17.1222 79.3079 17.1222ZM83.9581 18V11.4545H85.1896V12.4943H85.2578C85.3771 12.142 85.5874 11.8651 85.8885 11.6634C86.1925 11.4588 86.5362 11.3565 86.9197 11.3565C86.9993 11.3565 87.093 11.3594 87.201 11.3651C87.3118 11.3707 87.3984 11.3778 87.4609 11.3864V12.6051C87.4098 12.5909 87.3189 12.5753 87.1882 12.5582C87.0575 12.5384 86.9268 12.5284 86.7962 12.5284C86.495 12.5284 86.2266 12.5923 85.9908 12.7202C85.7578 12.8452 85.5732 13.0199 85.4368 13.2443C85.3004 13.4659 85.2322 13.7187 85.2322 14.0028V18H83.9581ZM93.0135 14.1136V18H91.7393V11.4545H92.9624V12.5199H93.0433C93.1939 12.1733 93.4297 11.8949 93.7507 11.6847C94.0746 11.4744 94.4822 11.3693 94.9737 11.3693C95.4197 11.3693 95.8104 11.4631 96.1456 11.6506C96.4808 11.8352 96.7408 12.1108 96.9254 12.4773C97.1101 12.8437 97.2024 13.2969 97.2024 13.8366V18H95.9283V13.9901C95.9283 13.5156 95.8047 13.1449 95.5575 12.8778C95.3104 12.608 94.9709 12.473 94.5391 12.473C94.2436 12.473 93.9808 12.5369 93.7507 12.6648C93.5234 12.7926 93.343 12.9801 93.2095 13.2273C93.0788 13.4716 93.0135 13.767 93.0135 14.1136ZM100.816 18.1449C100.401 18.1449 100.026 18.0682 99.6911 17.9148C99.3558 17.7585 99.0902 17.5327 98.8942 17.2372C98.701 16.9418 98.6044 16.5795 98.6044 16.1506C98.6044 15.7812 98.6754 15.4773 98.8175 15.2386C98.9595 15 99.1513 14.8111 99.3928 14.6719C99.6342 14.5327 99.9041 14.4276 100.202 14.3565C100.501 14.2855 100.805 14.2315 101.114 14.1946C101.506 14.1491 101.825 14.1122 102.069 14.0838C102.313 14.0526 102.491 14.0028 102.602 13.9347C102.712 13.8665 102.768 13.7557 102.768 13.6023V13.5724C102.768 13.2003 102.663 12.9119 102.452 12.7074C102.245 12.5028 101.935 12.4006 101.523 12.4006C101.094 12.4006 100.756 12.4957 100.509 12.6861C100.265 12.8736 100.096 13.0824 100.002 13.3125L98.8047 13.0398C98.9467 12.642 99.1541 12.321 99.4268 12.0767C99.7024 11.8295 100.019 11.6506 100.377 11.5398C100.735 11.4261 101.112 11.3693 101.506 11.3693C101.768 11.3693 102.045 11.4006 102.337 11.4631C102.633 11.5227 102.908 11.6335 103.164 11.7955C103.423 11.9574 103.634 12.1889 103.799 12.4901C103.964 12.7884 104.046 13.1761 104.046 13.6534V18H102.802V17.1051H102.751C102.668 17.2699 102.545 17.4318 102.38 17.5909C102.215 17.75 102.004 17.8821 101.745 17.9872C101.487 18.0923 101.177 18.1449 100.816 18.1449ZM101.093 17.1222C101.445 17.1222 101.746 17.0526 101.996 16.9134C102.249 16.7741 102.441 16.5923 102.572 16.3679C102.705 16.1406 102.772 15.8977 102.772 15.6392V14.7955C102.727 14.8409 102.638 14.8835 102.508 14.9233C102.38 14.9602 102.234 14.9929 102.069 15.0213C101.904 15.0469 101.744 15.071 101.587 15.0938C101.431 15.1136 101.3 15.1307 101.195 15.1449C100.948 15.1761 100.722 15.2287 100.518 15.3026C100.316 15.3764 100.154 15.483 100.032 15.6222C99.9126 15.7585 99.853 15.9403 99.853 16.1676C99.853 16.483 99.9695 16.7216 100.202 16.8835C100.435 17.0426 100.732 17.1222 101.093 17.1222Z" fill="#A1A1AA"/>
<path d="M54.8267 39H52.4972L57.7315 24.4545H60.267L65.5014 39H63.1719L59.0597 27.0966H58.946L54.8267 39ZM55.2173 33.304H62.7741V35.1506H55.2173V33.304ZM67.4315 43.0909V28.0909H69.5053V29.8594H69.6829C69.806 29.6321 69.9835 29.3693 70.2156 29.071C70.4476 28.7727 70.7695 28.5123 71.1815 28.2898C71.5934 28.0625 72.1379 27.9489 72.815 27.9489C73.6957 27.9489 74.4817 28.1714 75.1729 28.6165C75.8642 29.0616 76.4064 29.7031 76.7994 30.5412C77.1971 31.3793 77.396 32.3878 77.396 33.5668C77.396 34.7457 77.1995 35.7566 76.8065 36.5994C76.4135 37.4375 75.8737 38.0838 75.1871 38.5384C74.5006 38.9882 73.717 39.2131 72.8363 39.2131C72.1734 39.2131 71.6313 39.1018 71.2099 38.8793C70.7932 38.6567 70.4665 38.3963 70.2298 38.098C69.993 37.7997 69.8107 37.5346 69.6829 37.3026H69.555V43.0909H67.4315ZM69.5124 33.5455C69.5124 34.3125 69.6237 34.9848 69.8462 35.5625C70.0688 36.1402 70.3907 36.5923 70.8121 36.919C71.2335 37.241 71.7496 37.402 72.3604 37.402C72.9949 37.402 73.5252 37.2339 73.9513 36.8977C74.3775 36.5568 74.6995 36.0952 74.9173 35.5128C75.1398 34.9304 75.2511 34.2746 75.2511 33.5455C75.2511 32.8258 75.1422 32.1795 74.9244 31.6065C74.7113 31.0336 74.3893 30.5814 73.9585 30.25C73.5323 29.9186 72.9996 29.7528 72.3604 29.7528C71.7449 29.7528 71.2241 29.9115 70.7979 30.2287C70.3765 30.5459 70.0569 30.9886 69.8391 31.5568C69.6213 32.125 69.5124 32.7879 69.5124 33.5455ZM79.7752 43.0909V28.0909H81.8491V29.8594H82.0266C82.1497 29.6321 82.3273 29.3693 82.5593 29.071C82.7913 28.7727 83.1133 28.5123 83.5252 28.2898C83.9371 28.0625 84.4817 27.9489 85.1587 27.9489C86.0394 27.9489 86.8254 28.1714 87.5167 28.6165C88.208 29.0616 88.7501 29.7031 89.1431 30.5412C89.5408 31.3793 89.7397 32.3878 89.7397 33.5668C89.7397 34.7457 89.5432 35.7566 89.1502 36.5994C88.7572 37.4375 88.2174 38.0838 87.5309 38.5384C86.8443 38.9882 86.0607 39.2131 85.18 39.2131C84.5172 39.2131 83.975 39.1018 83.5536 38.8793C83.137 38.6567 82.8103 38.3963 82.5735 38.098C82.3368 37.7997 82.1545 37.5346 82.0266 37.3026H81.8988V43.0909H79.7752ZM81.8562 33.5455C81.8562 34.3125 81.9674 34.9848 82.19 35.5625C82.4125 36.1402 82.7345 36.5923 83.1559 36.919C83.5773 37.241 84.0934 37.402 84.7042 37.402C85.3387 37.402 85.869 37.2339 86.2951 36.8977C86.7212 36.5568 87.0432 36.0952 87.261 35.5128C87.4835 34.9304 87.5948 34.2746 87.5948 33.5455C87.5948 32.8258 87.4859 32.1795 87.2681 31.6065C87.055 31.0336 86.7331 30.5814 86.3022 30.25C85.8761 29.9186 85.3434 29.7528 84.7042 29.7528C84.0887 29.7528 83.5678 29.9115 83.1417 30.2287C82.7203 30.5459 82.4007 30.9886 82.1829 31.5568C81.9651 32.125 81.8562 32.7879 81.8562 33.5455ZM105.516 28.2756C105.44 27.6032 105.127 27.0824 104.578 26.7131C104.029 26.339 103.338 26.152 102.504 26.152C101.908 26.152 101.392 26.2467 100.956 26.4361C100.52 26.6207 100.182 26.8764 99.9403 27.2031C99.7036 27.5251 99.5852 27.892 99.5852 28.304C99.5852 28.6496 99.6657 28.9479 99.8267 29.1989C99.9924 29.4498 100.208 29.6605 100.473 29.831C100.743 29.9967 101.032 30.1364 101.339 30.25C101.647 30.3589 101.943 30.4489 102.227 30.5199L103.648 30.8892C104.112 31.0028 104.588 31.1567 105.075 31.3509C105.563 31.545 106.015 31.8007 106.432 32.1179C106.848 32.4351 107.185 32.8281 107.44 33.2969C107.701 33.7656 107.831 34.3267 107.831 34.9801C107.831 35.804 107.618 36.5355 107.192 37.1747C106.77 37.8139 106.157 38.3182 105.352 38.6875C104.552 39.0568 103.584 39.2415 102.447 39.2415C101.358 39.2415 100.416 39.0687 99.6207 38.723C98.8253 38.3774 98.2027 37.8873 97.7528 37.2528C97.303 36.6136 97.0545 35.8561 97.0071 34.9801H99.2088C99.2514 35.5057 99.4219 35.9437 99.7202 36.294C100.023 36.6397 100.409 36.8977 100.878 37.0682C101.351 37.2339 101.87 37.3168 102.433 37.3168C103.054 37.3168 103.605 37.2197 104.088 37.0256C104.576 36.8267 104.959 36.5521 105.239 36.2017C105.518 35.8466 105.658 35.4323 105.658 34.9588C105.658 34.5279 105.535 34.1752 105.288 33.9006C105.047 33.6259 104.718 33.3987 104.301 33.2188C103.889 33.0388 103.423 32.8802 102.902 32.7429L101.183 32.2741C100.018 31.9569 99.0952 31.4905 98.4134 30.875C97.7363 30.2595 97.3977 29.4451 97.3977 28.4318C97.3977 27.5937 97.625 26.8622 98.0795 26.2372C98.5341 25.6122 99.1496 25.1269 99.9261 24.7812C100.703 24.4309 101.579 24.2557 102.554 24.2557C103.539 24.2557 104.408 24.4285 105.161 24.7741C105.918 25.1198 106.515 25.5956 106.95 26.2017C107.386 26.803 107.613 27.4943 107.632 28.2756H105.516ZM115.375 28.0909V29.7955H109.417V28.0909H115.375ZM111.015 25.4773H113.138V35.7969C113.138 36.2088 113.2 36.5189 113.323 36.7273C113.446 36.9309 113.605 37.0705 113.799 37.1463C113.998 37.2173 114.213 37.2528 114.445 37.2528C114.615 37.2528 114.765 37.241 114.892 37.2173C115.02 37.1937 115.12 37.1747 115.191 37.1605L115.574 38.9148C115.451 38.9621 115.276 39.0095 115.049 39.0568C114.821 39.1089 114.537 39.1373 114.196 39.142C113.638 39.1515 113.117 39.0521 112.634 38.8438C112.151 38.6354 111.76 38.3134 111.462 37.8778C111.164 37.4422 111.015 36.8954 111.015 36.2372V25.4773ZM122.202 39.2202C121.18 39.2202 120.287 38.9858 119.525 38.517C118.763 38.0483 118.171 37.3925 117.749 36.5497C117.328 35.7069 117.117 34.7221 117.117 33.5952C117.117 32.4635 117.328 31.474 117.749 30.6264C118.171 29.7789 118.763 29.1207 119.525 28.652C120.287 28.1832 121.18 27.9489 122.202 27.9489C123.225 27.9489 124.118 28.1832 124.88 28.652C125.642 29.1207 126.234 29.7789 126.656 30.6264C127.077 31.474 127.288 32.4635 127.288 33.5952C127.288 34.7221 127.077 35.7069 126.656 36.5497C126.234 37.3925 125.642 38.0483 124.88 38.517C124.118 38.9858 123.225 39.2202 122.202 39.2202ZM122.21 37.4375C122.872 37.4375 123.422 37.2623 123.857 36.9119C124.293 36.5616 124.615 36.0952 124.823 35.5128C125.036 34.9304 125.143 34.2888 125.143 33.5881C125.143 32.892 125.036 32.2528 124.823 31.6705C124.615 31.0833 124.293 30.6122 123.857 30.2571C123.422 29.902 122.872 29.7244 122.21 29.7244C121.542 29.7244 120.988 29.902 120.548 30.2571C120.112 30.6122 119.788 31.0833 119.575 31.6705C119.366 32.2528 119.262 32.892 119.262 33.5881C119.262 34.2888 119.366 34.9304 119.575 35.5128C119.788 36.0952 120.112 36.5616 120.548 36.9119C120.988 37.2623 121.542 37.4375 122.21 37.4375ZM129.658 39V28.0909H131.711V29.8239H131.824C132.023 29.2367 132.373 28.7751 132.875 28.4389C133.382 28.098 133.955 27.9276 134.594 27.9276C134.727 27.9276 134.883 27.9323 135.063 27.9418C135.248 27.9512 135.392 27.9631 135.496 27.9773V30.0085C135.411 29.9848 135.259 29.9588 135.042 29.9304C134.824 29.8973 134.606 29.8807 134.388 29.8807C133.886 29.8807 133.439 29.9872 133.046 30.2003C132.658 30.4086 132.35 30.6998 132.123 31.0739C131.895 31.4432 131.782 31.8646 131.782 32.3381V39H129.658ZM141.645 39.2202C140.57 39.2202 139.644 38.9905 138.868 38.5312C138.096 38.0672 137.5 37.4162 137.078 36.5781C136.661 35.7353 136.453 34.7481 136.453 33.6165C136.453 32.4991 136.661 31.5142 137.078 30.6619C137.5 29.8097 138.087 29.1444 138.839 28.6662C139.597 28.188 140.482 27.9489 141.496 27.9489C142.111 27.9489 142.708 28.0507 143.286 28.2543C143.863 28.4579 144.382 28.7775 144.841 29.2131C145.3 29.6487 145.662 30.2145 145.928 30.9105C146.193 31.6018 146.325 32.4422 146.325 33.4318V34.1847H137.653V32.5938H144.244C144.244 32.035 144.131 31.5402 143.903 31.1094C143.676 30.6738 143.357 30.3305 142.945 30.0795C142.537 29.8286 142.059 29.7031 141.51 29.7031C140.913 29.7031 140.393 29.8499 139.947 30.1435C139.507 30.4323 139.166 30.8111 138.925 31.2798C138.688 31.7438 138.57 32.2481 138.57 32.7926V34.0355C138.57 34.7647 138.697 35.3849 138.953 35.8963C139.214 36.4077 139.576 36.7983 140.04 37.0682C140.504 37.3333 141.046 37.4659 141.666 37.4659C142.069 37.4659 142.436 37.4091 142.767 37.2955C143.098 37.1771 143.385 37.0019 143.626 36.7699C143.868 36.5379 144.053 36.2514 144.18 35.9105L146.19 36.2727C146.029 36.8646 145.741 37.383 145.324 37.8281C144.912 38.2685 144.393 38.6117 143.768 38.858C143.148 39.0994 142.44 39.2202 141.645 39.2202Z" fill="#F4F4F5"/>
</svg>
